<?xml version="1.0" standalone="no"?><!DOCTYPE svg PUBLIC "-//W3C//DTD SVG 1.1//EN" "http://www.w3.org/Graphics/SVG/1.1/DTD/svg11.dtd"><svg t="1682406985049" class="icon" viewBox="0 0 1024 1024" version="1.1" xmlns="http://www.w3.org/2000/svg" p-id="2470" width="64" height="64" xmlns:xlink="http://www.w3.org/1999/xlink"><path d="M752.3 245.1h-0.3c-14.6 0-26.5 11.9-26.5 26.5v267.2c0 0.8 0 1.6 0.1 2.4v150.3c0 0.8 0 1.6-0.1 2.4V752c0 14.7-12 26.8-26.8 26.8H325.3c-14.7 0-26.8-12-26.8-26.8V645.4c0-14.7 12-26.8 26.8-26.8h319.8v-0.1c14.7 0 26.7-11.9 26.7-26.7h0.3l0.1-213.3V245.2c0-29.4-24-53.4-53.4-53.4H298.5c-29.4 0-53.4 24-53.4 53.4v533.7c0 29.4 24 53.4 53.4 53.4h426.9c29.4 0 53.4-24 53.4-53.4V271.6c0-14.6-11.9-26.5-26.5-26.5zM397.8 298c3.2-3.4 7.1-5.1 11.8-5.1h36.6v-26.1c0-4.5 1.7-8.5 5.1-11.8 3.2-3.4 7.1-5.1 11.8-5.1 4.5 0 8.5 1.7 11.8 5.1 3.4 3.4 5.1 7.3 5.1 11.8v26.1h28.1v-25.7c0-4.7 1.7-8.8 5.1-12.2 3.2-3.2 7.1-4.7 11.8-4.7 4.5 0 8.5 1.6 11.8 4.7 3.4 3.4 5.1 7.4 5.1 12.2v25.7h12.9c11.1 0 20.5 4 28.4 11.8 7.7 7.7 11.5 17 11.5 28.1v19.3c0 11.3-3.8 20.9-11.5 28.8-7.9 7.7-17.4 11.5-28.4 11.5H542V426h22.7c11.1 0 20.7 4.1 28.8 12.2 7.9 7.9 11.8 17.5 11.8 28.8v44c0 4.7-1.6 8.7-4.7 11.8-3.4 3.4-7.4 5.1-12.2 5.1-4.5 0-8.5-1.7-11.8-5.1-3.4-3.2-5.1-7.1-5.1-11.8v-44c0-4.7-2.3-7.1-6.8-7.1H542v79.9c0 4.7-1.7 8.7-5.1 11.8-3.4 3.4-7.3 5.1-11.8 5.1-4.7 0-8.7-1.7-11.8-5.1-3.4-3.2-5.1-7.1-5.1-11.8v-79.9h-31.8c-3.2 19.9-10.7 39.2-22.7 57.9-2.3 3.4-7.3 9.9-15.2 19.6l-12.2 14.9c-7.9 7.9-15.9 8.5-24 1.7-3.6-3.2-5.5-7-5.8-11.5-0.5-4.5 0.9-8.6 4.1-12.2 10.6-12 19-22.3 25.1-31.1 8.3-13.1 13.8-26.2 16.3-39.3h-13.5c-11.1 0-20.4-3.8-28.1-11.5-7.9-7.9-11.8-17.4-11.8-28.4v-21.7c0-10.8 3.8-20.1 11.5-27.8 7.9-7.9 17.3-11.8 28.1-11.8h18.3v-31.8h-36.6c-4.7 0-8.7-1.7-11.8-5.1-3.4-3.2-5.1-7.1-5.1-11.8-0.3-4.7 1.4-8.6 4.8-12z m-91.1 96.5l53.2-134.1c4.3-10.6 11.6-13.8 22-9.5 4.3 1.8 7.4 4.7 9.5 8.8 1.8 4.3 1.8 8.7 0 13.2l-19.6 49.4c0.2 0.5 0.3 1.6 0.3 3.4v215c0 4.7-1.6 8.7-4.7 11.8-3.4 3.4-7.4 5.1-12.2 5.1-4.7 0-8.7-1.7-11.8-5.1-3.4-3.2-5.1-7.1-5.1-11.8V407c-4.5 9.7-11.8 12.9-22 9.5-4.3-1.8-7.3-4.9-9.1-9.1-2.2-4.6-2.3-8.9-0.5-12.9z" fill="#2c2c2c" p-id="2471" data-spm-anchor-id="a313x.7781069.0.i8" class="selected"></path><path d="M645.3 672.1H378.2c-14.6 0-26.5 11.9-26.5 26.5v0.4c0 14.6 11.9 26.5 26.5 26.5h267.2c14.6 0 26.5-11.9 26.5-26.5v-0.4c0-14.6-12-26.5-26.6-26.5zM561 352.6v-19.3c0-4.1-2-6.1-6.1-6.1H542V359h12.9c4 0 6.1-2.1 6.1-6.4zM422.2 398.6v21.7c0 4.1 2 6.1 6.1 6.1h17.3c0.4-10.8 0.7-22 0.7-33.5H428c-3.9 0-5.8 1.9-5.8 5.7zM508.1 392.9H480c0 11.1-0.2 22.2-0.7 33.5h28.8v-33.5zM480 327.2h28.1V359H480z" fill="#2c2c2c" p-id="2472"></path></svg>